<?xml version="1.0" encoding="utf-8"?>
<svg width="505" height="549" viewBox="0 0 505 549" xmlns="http://www.w3.org/2000/svg">
<rect id="frame" x="0" y="0" width="505" height="549" fill="#ffffbf" stroke="none" stroke-width="0"/>

<!-- Association play -->
<g class="page_0_oCax8GtA diagram_page" visibility="visible">
	<line x1="264" y1="211" x2="264" y2="51" stroke="#f46d43" stroke-width="2"/>
	<text x="269" y="110" fill="#1a9850" font-family="Verdana" font-size="12">0,N</text>
	<line x1="158" y1="51" x2="264" y2="51" stroke="#f46d43" stroke-width="2"/>
	<text x="207" y="68" fill="#1a9850" font-family="Verdana" font-size="12">0,N</text>
	<g>
		<path d="M270 26 a14 14 90 0 1 14 14 V51 h-40 V40 a14 14 90 0 1 14 -14" fill="#fdae61" stroke="#fdae61" stroke-width="0"/>
		<path d="M284 51 v11 a14 14 90 0 1 -14 14 H258 a14 14 90 0 1 -14 -14 V51 H40" fill="#fee08b" stroke="#fee08b" stroke-width="0"/>
		<rect x="244" y="26" width="40" height="50" fill="none" rx="14" stroke="#f46d43" stroke-width="2"/>
		<line x1="244" y1="51" x2="284" y2="51" stroke="#f46d43" stroke-width="1"/>
		<text x="251" y="43.75" fill="#000" font-family="Verdana" font-size="12">play</text>
		<text x="251" y="68.8" fill="#000" font-family="Verdana" font-size="12">role</text>
	</g>
</g>

<!-- Association written -->
<g class="page_0_oCax8GtA diagram_page" visibility="visible">
	<line x1="264" y1="211" x2="158" y2="211" stroke="#f46d43" stroke-width="2"/>
	<text x="192" y="228" fill="#1a9850" font-family="Verdana" font-size="12">0,N</text>
	<line x1="53" y1="211" x2="158" y2="211" stroke="#f46d43" stroke-width="2"/>
	<text x="102" y="228" fill="#1a9850" font-family="Verdana" font-size="12">1,1</text>
	<g>
		<path d="M173 186 a14 14 90 0 1 14 14 V211 h-58 V200 a14 14 90 0 1 14 -14" fill="#fdae61" stroke="#fdae61" stroke-width="0"/>
		<path d="M187 211 v11 a14 14 90 0 1 -14 14 H143 a14 14 90 0 1 -14 -14 V211 H58" fill="#fee08b" stroke="#fee08b" stroke-width="0"/>
		<rect x="129" y="186" width="58" height="50" fill="none" rx="14" stroke="#f46d43" stroke-width="2"/>
		<line x1="129" y1="211" x2="187" y2="211" stroke="#f46d43" stroke-width="1"/>
		<text x="137" y="203.75" fill="#000" font-family="Verdana" font-size="12">written</text>
	</g>
</g>

<!-- Association has -->
<g class="page_0_oCax8GtA diagram_page" visibility="visible">
	<line x1="264" y1="211" x2="382" y2="211" stroke="#f46d43" stroke-width="2"/>
	<text x="314" y="228" fill="#1a9850" font-family="Verdana" font-size="12">0,N</text>
	<line x1="382" y1="51" x2="382" y2="211" stroke="#f46d43" stroke-width="2"/>
	<text x="387" y="102" fill="#1a9850" font-family="Verdana" font-size="12">0,N</text>
	<g>
		<path d="M386 186 a14 14 90 0 1 14 14 V211 h-36 V200 a14 14 90 0 1 14 -14" fill="#fdae61" stroke="#fdae61" stroke-width="0"/>
		<path d="M400 211 v11 a14 14 90 0 1 -14 14 H378 a14 14 90 0 1 -14 -14 V211 H36" fill="#fee08b" stroke="#fee08b" stroke-width="0"/>
		<rect x="364" y="186" width="36" height="50" fill="none" rx="14" stroke="#f46d43" stroke-width="2"/>
		<line x1="364" y1="211" x2="400" y2="211" stroke="#f46d43" stroke-width="1"/>
		<text x="371" y="203.75" fill="#000" font-family="Verdana" font-size="12">has</text>
	</g>
</g>

<!-- Association belongs_to -->
<g class="page_0_oCax8GtA diagram_page" visibility="visible">
	<line x1="264" y1="211" x2="264" y2="371" stroke="#f46d43" stroke-width="2"/>
	<text x="269" y="321" fill="#1a9850" font-family="Verdana" font-size="12">0,N</text>
	<line x1="382" y1="371" x2="264" y2="371" stroke="#f46d43" stroke-width="2"/>
	<text x="311" y="388" fill="#1a9850" font-family="Verdana" font-size="12">1,1</text>
	<g>
		<path d="M291 346 a14 14 90 0 1 14 14 V371 h-82 V360 a14 14 90 0 1 14 -14" fill="#fdae61" stroke="#fdae61" stroke-width="0"/>
		<path d="M305 371 v11 a14 14 90 0 1 -14 14 H237 a14 14 90 0 1 -14 -14 V371 H82" fill="#fee08b" stroke="#fee08b" stroke-width="0"/>
		<rect x="223" y="346" width="82" height="50" fill="none" rx="14" stroke="#f46d43" stroke-width="2"/>
		<line x1="223" y1="371" x2="305" y2="371" stroke="#f46d43" stroke-width="1"/>
		<text x="231" y="363.75" fill="#000" font-family="Verdana" font-size="12">belongs_to</text>
	</g>
</g>

<!-- Entity Person -->
<g class="page_0_oCax8GtA diagram_page" visibility="visible">
	<g>
		<rect x="114" y="9" width="88" height="25" fill="#a6d96a" stroke="#a6d96a" stroke-width="0" opacity="1"/>
		<rect x="114" y="34" width="88" height="59" fill="#d9ef8b" stroke="#d9ef8b" stroke-width="0" opacity="1"/>
		<rect x="114" y="9" width="88" height="84" fill="none" stroke="#66bd63" stroke-width="2" opacity="1"/>
		<line x1="114" y1="34" x2="202" y2="34" stroke="#66bd63" stroke-width="1"/>
	</g>
	<text x="137" y="26.75" fill="#000" font-family="Verdana" font-size="12">Person</text>
	<text x="119" y="51.8" fill="#000" font-family="Verdana" font-size="12">code_person</text>
	<line x1="119" y1="54" x2="197" y2="54" stroke="#000" stroke-width="1"/>
	<text x="119" y="68.8" fill="#000" font-family="Verdana" font-size="12">firstname</text>
	<text x="119" y="85.8" fill="#000" font-family="Verdana" font-size="12">lastname</text>
</g>

<!-- Entity Genre -->
<g class="page_0_oCax8GtA diagram_page" visibility="visible">
	<g>
		<rect x="341" y="17" width="82" height="25" fill="#a6d96a" stroke="#a6d96a" stroke-width="0" opacity="1"/>
		<rect x="341" y="42" width="82" height="43" fill="#d9ef8b" stroke="#d9ef8b" stroke-width="0" opacity="1"/>
		<rect x="341" y="17" width="82" height="68" fill="none" stroke="#66bd63" stroke-width="2" opacity="1"/>
		<line x1="341" y1="42" x2="423" y2="42" stroke="#66bd63" stroke-width="1"/>
	</g>
	<text x="364" y="34.75" fill="#000" font-family="Verdana" font-size="12">Genre</text>
	<text x="346" y="59.8" fill="#000" font-family="Verdana" font-size="12">code_genre</text>
	<line x1="346" y1="62" x2="417" y2="62" stroke="#000" stroke-width="1"/>
	<text x="346" y="76.8" fill="#000" font-family="Verdana" font-size="12">name</text>
</g>

<!-- Entity Review -->
<g class="page_0_oCax8GtA diagram_page" visibility="visible">
	<g>
		<rect x="9" y="152" width="88" height="25" fill="#a6d96a" stroke="#a6d96a" stroke-width="0" opacity="1"/>
		<rect x="9" y="177" width="88" height="93" fill="#d9ef8b" stroke="#d9ef8b" stroke-width="0" opacity="1"/>
		<rect x="9" y="152" width="88" height="118" fill="none" stroke="#66bd63" stroke-width="2" opacity="1"/>
		<line x1="9" y1="177" x2="97" y2="177" stroke="#66bd63" stroke-width="1"/>
	</g>
	<text x="31" y="169.75" fill="#000" font-family="Verdana" font-size="12">Review</text>
	<text x="14" y="194.8" fill="#000" font-family="Verdana" font-size="12">code_review</text>
	<line x1="14" y1="197" x2="91" y2="197" stroke="#000" stroke-width="1"/>
	<text x="14" y="211.8" fill="#000" font-family="Verdana" font-size="12">pseudo</text>
	<text x="14" y="228.8" fill="#000" font-family="Verdana" font-size="12">description</text>
	<text x="14" y="245.8" fill="#000" font-family="Verdana" font-size="12">view_date</text>
	<text x="14" y="262.8" fill="#000" font-family="Verdana" font-size="12">rating</text>
</g>

<!-- Entity Movie -->
<g class="page_0_oCax8GtA diagram_page" visibility="visible">
	<g>
		<rect x="219" y="118" width="90" height="25" fill="#a6d96a" stroke="#a6d96a" stroke-width="0" opacity="1"/>
		<rect x="219" y="143" width="90" height="161" fill="#d9ef8b" stroke="#d9ef8b" stroke-width="0" opacity="1"/>
		<rect x="219" y="118" width="90" height="186" fill="none" stroke="#66bd63" stroke-width="2" opacity="1"/>
		<line x1="219" y1="143" x2="309" y2="143" stroke="#66bd63" stroke-width="1"/>
	</g>
	<text x="246" y="135.75" fill="#000" font-family="Verdana" font-size="12">Movie</text>
	<text x="224" y="160.8" fill="#000" font-family="Verdana" font-size="12">code_movie</text>
	<line x1="224" y1="163" x2="297" y2="163" stroke="#000" stroke-width="1"/>
	<text x="224" y="177.8" fill="#000" font-family="Verdana" font-size="12">title</text>
	<text x="224" y="194.8" fill="#000" font-family="Verdana" font-size="12">synopsis</text>
	<text x="224" y="211.8" fill="#000" font-family="Verdana" font-size="12">poster</text>
	<text x="224" y="228.8" fill="#000" font-family="Verdana" font-size="12">release_date</text>
	<text x="224" y="245.8" fill="#000" font-family="Verdana" font-size="12">rating</text>
	<text x="224" y="262.8" fill="#000" font-family="Verdana" font-size="12">duration</text>
	<text x="224" y="279.8" fill="#000" font-family="Verdana" font-size="12">type</text>
	<text x="224" y="296.8" fill="#000" font-family="Verdana" font-size="12">summary</text>
</g>

<!-- Entity Season -->
<g class="page_0_oCax8GtA diagram_page" visibility="visible">
	<g>
		<rect x="337" y="329" width="90" height="25" fill="#a6d96a" stroke="#a6d96a" stroke-width="0" opacity="1"/>
		<rect x="337" y="354" width="90" height="59" fill="#d9ef8b" stroke="#d9ef8b" stroke-width="0" opacity="1"/>
		<rect x="337" y="329" width="90" height="84" fill="none" stroke="#66bd63" stroke-width="2" opacity="1"/>
		<line x1="337" y1="354" x2="427" y2="354" stroke="#66bd63" stroke-width="1"/>
	</g>
	<text x="360" y="346.75" fill="#000" font-family="Verdana" font-size="12">Season</text>
	<text x="342" y="371.8" fill="#000" font-family="Verdana" font-size="12">code_season</text>
	<line x1="342" y1="374" x2="421" y2="374" stroke="#000" stroke-width="1"/>
	<text x="342" y="388.8" fill="#000" font-family="Verdana" font-size="12">name</text>
	<text x="342" y="405.8" fill="#000" font-family="Verdana" font-size="12">nb_episode</text>
</g>

<!-- Entity User -->
<g class="page_0_oCax8GtA diagram_page" visibility="visible">
	<g>
		<rect x="422" y="438" width="74" height="25" fill="#a6d96a" stroke="#a6d96a" stroke-width="0" opacity="1"/>
		<rect x="422" y="463" width="74" height="77" fill="#d9ef8b" stroke="#d9ef8b" stroke-width="0" opacity="1"/>
		<rect x="422" y="438" width="74" height="102" fill="none" stroke="#66bd63" stroke-width="2" opacity="1"/>
		<line x1="422" y1="463" x2="496" y2="463" stroke="#66bd63" stroke-width="1"/>
	</g>
	<text x="445" y="455.75" fill="#000" font-family="Verdana" font-size="12">User</text>
	<text x="427" y="480.8" fill="#000" font-family="Verdana" font-size="12">code_user</text>
	<line x1="427" y1="483" x2="490" y2="483" stroke="#000" stroke-width="1"/>
	<text x="427" y="497.8" fill="#000" font-family="Verdana" font-size="12">login</text>
	<text x="427" y="514.8" fill="#000" font-family="Verdana" font-size="12">password</text>
	<text x="427" y="531.8" fill="#000" font-family="Verdana" font-size="12">role</text>
</g>
</svg>